<svg height="438pt" viewBox="0 -4 438.451 438" width="438pt" xmlns="http://www.w3.org/2000/svg"><path d="m114.199219 101.15625c.054687-41.8125 28.941406-78.058594 69.6875-87.4375-35.964844-8.214844-73.289063 6.429688-94.070313 36.910156-20.78125 30.476563-20.78125 70.574219 0 101.050782 20.78125 30.480468 58.105469 45.125 94.070313 36.910156-40.742188-9.378906-69.632813-45.625-69.6875-87.433594zm0 0" fill="#d4e1f4"/><path d="m95.347656 292.101562c23.679688-24.355468 54.9375-39.933593 88.640625-44.167968-6.613281-.851563-13.277343-1.28125-19.945312-1.28125h-.300781c-41.417969.078125-79.910157 16.21875-108.394532 45.449218-27.648437 28.371094-43.398437 66.78125-44.691406 108.699219l40-.066406c1.3125-41.894531 17.058594-80.277344 44.691406-108.632813zm0 0" fill="#d4e1f4"/><path d="m165.3125 203.597656c56.164062.003906 101.691406-45.523437 101.691406-101.683594 0-56.160156-45.527344-101.6875-101.6875-101.6875s-101.6875 45.527344-101.6875 101.6875c.0625 56.132813 45.550782 101.621094 101.683594 101.683594zm0-191.371094c49.535156 0 89.691406 40.152344 89.691406 89.6875 0 49.53125-40.15625 89.6875-89.6875 89.6875-49.535156 0-89.6875-40.15625-89.6875-89.6875.054688-49.511718 40.175782-89.632812 89.683594-89.6875zm0 0" fill="#2f55d4"/><path d="m5.996094 413.570312h.011718l247.972657-.515624-.027344-12-241.871094.5c1.300781-41.917969 17.046875-80.332032 44.699219-108.703126 28.480469-29.226562 66.976562-45.367187 108.390625-45.445312h.308594c33.171875-.195312 65.476562 10.570312 91.898437 30.625l7.257813-9.558594c-28.503907-21.644531-63.363281-33.269531-99.15625-33.066406h-.328125c-44.671875.085938-86.210938 17.511719-116.964844 49.070312-31.164062 31.980469-48.2773438 75.703126-48.1875 123.101563.0078125 3.308594 2.691406 5.988281 6 5.988281zm0 0" fill="#2f55d4"/><path d="m222.453125 305.496094h24.753906v118.019531c0 3.316406 2.6875 6 6 6h148.492188c3.3125 0 6-2.683594 6-6v-118.019531h24.753906c2.597656 0 4.898437-1.671875 5.703125-4.140625.804688-2.472657-.074219-5.179688-2.171875-6.707031l-26.789063-19.5v-30.578126c0-3.3125-2.683593-6-6-6-3.3125 0-6 2.6875-6 6v21.839844l-66.210937-48.203125c-2.105469-1.53125-4.960937-1.53125-7.0625 0l-105 76.445313c-2.101563 1.53125-2.980469 4.238281-2.175781 6.707031.804687 2.472656 3.109375 4.144531 5.707031 4.144531zm105-75.019532 86.5625 63.019532h-12.316406c-3.316407 0-6 2.6875-6 6v118.019531h-136.492188v-118.019531c0-3.3125-2.6875-6-6-6h-12.320312zm0 0" fill="#2eca8b"/></svg>